<svg width="27" height="24" viewBox="0 0 27 24" fill="none" xmlns="http://www.w3.org/2000/svg">
<path d="M7.31371 7.56167L4.4956 10.4015L12.3084 18.1546L26.1868 4.16914L23.348 1.35102L12.2867 12.4956L7.31371 7.56167Z" fill="#C5C5C5"/>
<path d="M21.0767 20.0229C21.0788 20.5649 20.6225 21.0246 20.0805 21.0267L3.08066 21.092C2.53866 21.0941 2.0789 20.6379 2.07682 20.0959L2.01151 3.09599C2.00943 2.554 2.46567 2.09424 3.00766 2.09216L19.9155 2.0272L21.4944 0.436124C21.0414 0.169404 20.5255 0.028143 19.9999 0.0268629L2.99998 0.0921734C1.34999 0.0985123 0.00518642 1.45369 0.0115254 3.10368L0.0768358 20.1036C0.0831748 21.7535 1.43835 23.0983 3.08834 23.092L20.0882 23.0267C21.7382 23.0204 23.083 21.6652 23.0767 20.0152L23.0389 10.1863L21.0466 12.1939L21.0767 20.0229Z" fill="#C5C5C5"/>
</svg>
